<!DOCTYPE svg PUBLIC "-//W3C//DTD SVG 1.1//EN" "http://www.w3.org/Graphics/SVG/1.1/DTD/svg11.dtd">
<!-- Uploaded to: SVG Repo, www.svgrepo.com, Transformed by: SVG Repo Mixer Tools -->
<svg fill="#2c4573" height="64px" width="64px" version="1.1" id="Layer_1" xmlns="http://www.w3.org/2000/svg" xmlns:xlink="http://www.w3.org/1999/xlink" viewBox="0 0 503.607 503.607" xml:space="preserve">
<g id="SVGRepo_bgCarrier" stroke-width="0"/>
<g id="SVGRepo_tracerCarrier" stroke-linecap="round" stroke-linejoin="round"/>
<g id="SVGRepo_iconCarrier"> <g> <g> <path d="M92.328,318.951c-5.036,0-8.393,3.357-8.393,8.393v50.361c0,5.036,3.357,8.393,8.393,8.393s8.393-3.357,8.393-8.393 v-50.361C100.721,322.308,97.364,318.951,92.328,318.951z"/> </g> </g> <g> <g> <path d="M495.213,0H8.393C3.357,0,0,4.197,0,8.393v201.443v201.443v83.934c0,5.036,3.357,8.393,8.393,8.393h193.049v-83.934 h16.787v83.934h67.148v-83.934h16.787v83.934h193.049c5.036,0,8.393-3.357,8.393-8.393v-83.934V209.836V8.393 C503.607,4.197,500.249,0,495.213,0z M109.115,461.639c-5.036,0-8.393-3.357-8.393-8.393c0-5.036,3.357-8.393,8.393-8.393 s8.393,3.357,8.393,8.393C117.508,458.282,114.151,461.639,109.115,461.639z M117.508,402.885H67.148V302.164h50.361V402.885z M117.508,276.984v8.393H67.148V268.59h50.361V276.984z M184.656,402.885h-50.361V293.771v-8.393h50.361V402.885z M184.656,268.59 h-50.361v-8.393v-8.393h50.361V268.59z M394.492,461.639c-5.036,0-8.393-3.357-8.393-8.393c0-5.036,3.357-8.393,8.393-8.393 c5.036,0,8.393,3.357,8.393,8.393C402.885,458.282,399.528,461.639,394.492,461.639z M411.279,402.885H293.771h-45.325 c3.357-10.911,3.357-22.662,0-33.574h11.751h151.082c9.233,0,16.787,7.554,16.787,16.787 C428.066,395.331,420.511,402.885,411.279,402.885z M411.279,302.164H260.197h-11.751c3.357-10.911,3.357-22.662,0-33.574h162.833 c9.233,0,16.787,7.554,16.787,16.787C428.066,294.61,420.511,302.164,411.279,302.164z M486.82,402.885h-47.003 c2.518-5.036,5.036-10.911,5.036-16.787c0-5.875-1.679-11.751-5.036-16.787c16.787-1.679,30.216-15.948,30.216-33.574 c0-17.626-13.43-31.056-30.216-33.574c3.357-5.036,5.036-10.911,5.036-16.787c0-18.466-15.108-33.574-33.574-33.574H235.016 c-3.357,0-5.875,1.679-7.554,4.197c-1.679,2.518-1.679,5.875,0.839,8.393c8.393,12.59,8.393,28.538,0,41.128 c-1.679,2.518-1.679,5.875-0.839,8.393c1.679,2.518,4.197,4.197,7.554,4.197h20.144c5.036,10.911,5.036,22.662,0,33.574h-20.144 c-3.357,0-5.875,1.679-7.554,4.197c-1.679,2.518-1.679,5.875,0.839,8.393c7.554,10.911,8.393,25.18,2.518,36.931h-20.984h-8.393 V276.984V243.41c0-5.036-3.357-8.393-8.393-8.393h-67.148c-5.036,0-8.393,3.357-8.393,8.393v8.393H58.754 c-5.036,0-8.393,3.357-8.393,8.393v33.574v109.115H16.787V218.229h25.18h50.361h50.361h50.361h50.361h243.41V402.885z M50.361,100.721V83.934h33.574v8.393v8.393H50.361z M134.295,134.295v67.148h-33.574v-67.148H134.295z M100.721,117.508v-8.393 v-8.393h33.574v8.393v8.393H100.721z M151.082,100.721v-8.393v-8.393h33.574v16.787H151.082z M235.016,83.934v117.508h-33.574 v-92.328v-25.18H235.016z M201.443,67.148V50.361h33.574v16.787H201.443z M305.521,201.443h-53.718V95.685L305.521,201.443z M254.321,62.951l30.216-14.269l7.554,15.108l-30.216,14.269L254.321,62.951z M486.82,201.443H354.203l10.911-5.875 c4.197-1.679,5.875-6.715,4.197-10.911L310.557,63.79l-14.269-30.216c-0.839-1.679-2.518-3.357-5.036-4.197 c-1.679-0.839-4.197-0.839-6.715,0l-33.574,15.948v-3.357c0-5.036-3.357-8.393-8.393-8.393H192.21 c-5.036,0-8.393,3.357-8.393,8.393v25.18h-41.967c-5.036,0-8.393,3.357-8.393,8.393v8.393H99.882v-8.393 c0-5.036-3.357-8.393-8.393-8.393H41.967c-5.036,0-8.393,4.197-8.393,8.393v33.574v92.328H16.787V16.787H486.82V201.443z"/> </g> </g> <g> <g> <path d="M92.328,318.951c-5.036,0-8.393,3.357-8.393,8.393v50.361c0,5.036,3.357,8.393,8.393,8.393s8.393-3.357,8.393-8.393 v-50.361C100.721,322.308,97.364,318.951,92.328,318.951z"/> </g> </g> <g> <g> <path d="M159.475,302.164c-5.036,0-8.393,3.357-8.393,8.393v67.148c0,5.036,3.357,8.393,8.393,8.393s8.393-3.357,8.393-8.393 v-67.148C167.869,305.521,164.511,302.164,159.475,302.164z"/> </g> </g> </g>
</svg>