<!DOCTYPE svg PUBLIC "-//W3C//DTD SVG 1.1//EN" "http://www.w3.org/Graphics/SVG/1.1/DTD/svg11.dtd">
<!-- Uploaded to: SVG Repo, www.svgrepo.com, Transformed by: SVG Repo Mixer Tools -->
<svg height="64px" width="64px" version="1.1" id="Layer_1" xmlns="http://www.w3.org/2000/svg" xmlns:xlink="http://www.w3.org/1999/xlink" viewBox="0 0 512 512" xml:space="preserve" fill="#000000">
<g id="SVGRepo_bgCarrier" stroke-width="0"/>
<g id="SVGRepo_tracerCarrier" stroke-linecap="round" stroke-linejoin="round"/>
<g id="SVGRepo_iconCarrier"> <path style="fill:#47CEAC;" d="M0,256.006C0,397.402,114.606,512.004,255.996,512C397.394,512.004,512,397.402,512,256.006 C512.009,114.61,397.394,0,255.996,0C114.606,0,0,114.614,0,256.006z"/> <path style="fill:#36BB9A;" d="M501.432,328.826L260.998,88.393c-2.762-2.762-7.235-2.762-9.998,0L109.603,229.792 c-2.762,2.762-2.762,7.235,0,9.997c0.29,0.29,0.657,0.423,0.98,0.652c0.228,0.323,0.362,0.691,0.652,0.98 c0.29,0.289,137.505,137.341,137.695,137.494v39.693c0,2.375,1.248,4.374,3.045,5.657c0.458,0.641,76.069,76.252,76.709,76.709 c0.109,0.153,0.27,0.247,0.388,0.388C411.771,476.772,476.923,411.558,501.432,328.826z"/> <path style="fill:#ffffff;" d="M402.397,229.792L260.998,88.393c-2.762-2.762-7.235-2.762-9.997,0L109.603,229.792 c-2.762,2.762-2.762,7.235,0,9.997s7.235,2.762,9.997,0l129.33-129.33v308.149c0,3.904,3.166,7.07,7.07,7.07 c3.904,0,7.07-3.166,7.07-7.07V110.459l129.33,129.33c1.381,1.381,3.189,2.071,4.998,2.071s3.618-0.69,4.998-2.071 C405.159,237.027,405.159,232.554,402.397,229.792z"/> </g>
</svg>